<svg width="512" height="512" viewBox="0 0 512 512" xmlns="http://www.w3.org/2000/svg">
  <!-- Fondo transparente por defecto -->

  <!-- Nube principal -->
  <defs>
    <linearGradient id="cloudGradient" x1="0" y1="0" x2="1" y2="1">
      <stop offset="0%" stop-color="#4A90E2"/>
      <stop offset="100%" stop-color="#2C6FD6"/>
    </linearGradient>
  </defs>

  <g transform="translate(56,100)">
    <path
      d="M112 224c-35 0-64-26-64-60 0-32 23-57 53-60 8-42 45-74 89-74 41 0 75 26 86 64 31 3 56 29 56 61 0 34-29 60-64 60H112z"
      fill="url(#cloudGradient)"
    />

    <!-- Avión de papel estilo Telegram (simplificado) -->
    <g transform="translate(120,100) scale(1.1)">
      <polygon
        points="0,40 120,0 96,120 60,86 36,104"
        fill="#FFFFFF"
      />
      <polygon
        points="0,40 60,86 36,104"
        fill="#E0ECFF"
      />
    </g>

    <!-- Bloques de servicios cloud (Google Drive-like, OneDrive, Dropbox genéricos) -->
    <!-- Bloque 1 (verde / tipo Google Drive) -->
    <rect x="40" y="220" width="36" height="24" rx="4" fill="#1FA463"/>
    <!-- Bloque 2 (amarillo) -->
    <rect x="92" y="220" width="36" height="24" rx="4" fill="#FFD04B"/>
    <!-- Bloque 3 (azul) -->
    <rect x="144" y="220" width="36" height="24" rx="4" fill="#4688F4"/>
  </g>
</svg>
