<?xml version="1.0" encoding="UTF-8"?>
<svg xmlns="http://www.w3.org/2000/svg" viewBox="0 0 256 256" role="img" aria-label="CloudGram">
  <title>CloudGram</title>
  <defs>
    <linearGradient id="fv-grad" x1="0" y1="0" x2="1" y2="1">
      <stop offset="0%"  stop-color="#0A84FF"/>
      <stop offset="100%" stop-color="#BF5AF2"/>
    </linearGradient>
  </defs>
  <rect x="0" y="0" width="256" height="256" rx="56" ry="56" fill="url(#fv-grad)"/>
  <g transform="translate(48, 78)" fill="#FFFFFF">
    <path d="
      M44 12
      C 26 12, 12 26, 12 44
      C 12 46, 12.2 48, 12.6 50
      C 5.4 53, 0 60, 0 68.5
      C 0 79.8, 9.2 89, 20.5 89
      L 138 89
      C 150.7 89, 161 78.7, 161 66
      C 161 54.5, 152.5 45, 141.4 43.4
      C 140.3 26, 125.7 12, 108 12
      C 99.3 12, 91.4 15.5, 85.6 21
      C 80 15.5, 72.5 12, 64 12
      Z"/>
  </g>
</svg>
